<svg xmlns="http://www.w3.org/2000/svg" viewBox="0 0 32 32" width="32" height="32" fill="none"><path d="M16 17 C10 17 6.5 13 6.5 7.5 C12.5 7.5 16 11.5 16 17 Z" fill="#5A9E4A"/><path d="M16 21 C22 21 25.5 17 25.5 11.5 C19.5 11.5 16 15.5 16 21 Z" fill="#3D7030"/><path d="M16 16.4 C12.8 15 10.2 12.4 8.4 8.6 M16.4 20.4 C19.8 19 22.6 16.4 24.4 12.6" stroke="#7FCF63" stroke-width="1.2" fill="none" stroke-linecap="round"/><rect x="14.7" y="13.6" width="2.6" height="14" rx="1.3" fill="#3D7030"/><rect x="14.7" y="13.6" width="1.1" height="14" rx=".55" fill="#7FCF63" opacity=".5"/><circle cx="16" cy="5.4" r="2.3" fill="#7FCF63"/><circle cx="16" cy="5.4" r="1" fill="#5A9E4A"/><path d="M11.6 28.4 H20.4" stroke="#35602A" stroke-width="1.6" stroke-linecap="round"/></svg>