<svg xmlns="http://www.w3.org/2000/svg" viewBox="0 0 32 32" width="32" height="32" fill="none"><circle cx="11" cy="11.6" r="5" fill="#4A8CC4"/><circle cx="17" cy="9.2" r="6.4" fill="#4A8CC4"/><circle cx="23.4" cy="11.6" r="4.4" fill="#2E6394"/><rect x="6.2" y="11.6" width="21.6" height="7.4" rx="1" fill="#4A8CC4"/><rect x="6.2" y="16" width="21.6" height="3" rx="1" fill="#2E6394"/><ellipse cx="15.4" cy="7.2" rx="4.2" ry="2.2" fill="#6FB0E0" opacity=".8"/><rect x="4.6" y="20.4" width="22.8" height="2.7" rx="1.35" fill="#8A939D"/><rect x="4.6" y="21.1" width="22.8" height="1" fill="#B4BDC6"/><g fill="#626A73"><rect x="7.4" y="22.5" width="1.9" height="1.7"/><rect x="15" y="22.5" width="1.9" height="1.7"/><rect x="22.6" y="22.5" width="1.9" height="1.7"/></g><polygon points="8.35,24.4 10.15,28.4 6.55,28.4" fill="#2E6394"/><polygon points="15.95,24.4 17.75,28.6 14.15,28.6" fill="#2E6394"/><polygon points="23.55,24.4 25.35,28.4 21.75,28.4" fill="#1C4A70"/><circle cx="8.6" cy="9.6" r="1" fill="#6FB0E0" opacity=".8"/></svg>