<svg xmlns="http://www.w3.org/2000/svg" viewBox="0 0 32 32" width="32" height="32" fill="none"><g fill="#8A6142"><rect x="2.6" y="12.6" width="7" height="4.4" rx=".6"/><rect x="2.6" y="18" width="7" height="4.4" rx=".6"/><rect x="2.6" y="23.4" width="7" height="4.4" rx=".6"/><rect x="22.4" y="12.6" width="7" height="4.4" rx=".6"/><rect x="22.4" y="18" width="7" height="4.4" rx=".6"/><rect x="22.4" y="23.4" width="7" height="4.4" rx=".6"/></g><g fill="#6B4A2E"><rect x="2.6" y="16.2" width="7" height="1.2"/><rect x="2.6" y="21.6" width="7" height="1.2"/><rect x="22.4" y="16.2" width="7" height="1.2"/><rect x="22.4" y="21.6" width="7" height="1.2"/></g><path d="M16 8 L18 12 L22 12.6 L19.2 15.4 L20 19.4 L16 17.4 L12 19.4 L12.8 15.4 L10 12.6 L14 12 Z" fill="#D9541F"/><circle cx="16" cy="13.4" r="3.2" fill="#FFC46A"/><g fill="#8A6142"><rect x="10.8" y="24.2" width="3" height="2.6" rx=".5" transform="rotate(-24 12.3 25.5)"/><rect x="18.6" y="25.6" width="2.6" height="2.4" rx=".5" transform="rotate(18 19.9 26.8)"/></g></svg>